<mxfile host="app.diagrams.net" modified="2023-06-16T09:01:37.276Z" agent="Mozilla/5.0 (Macintosh; Intel Mac OS X 10_15_7) AppleWebKit/537.36 (KHTML, like Gecko) Chrome/113.0.0.0 Safari/537.36" etag="9BCteCosRNx9N7cvjcPY" version="21.1.7" type="github">
  <diagram name="Page-1" id="3qN4sVcazJbjcatruP4M">
    <mxGraphModel dx="1026" dy="532" grid="1" gridSize="10" guides="1" tooltips="1" connect="1" arrows="1" fold="1" page="1" pageScale="1" pageWidth="827" pageHeight="1169" math="0" shadow="0">
      <root>
        <mxCell id="0" />
        <mxCell id="1" parent="0" />
        <mxCell id="JKdy6dtFa4f12Sg1-I06-1" value="-Servcie 1 (methodes python)&lt;br&gt;-Service 2&amp;nbsp;&amp;nbsp;(methodes python)&lt;br&gt;-Service 3&amp;nbsp;&amp;nbsp;(methodes python)" style="shape=tape;whiteSpace=wrap;html=1;" vertex="1" parent="1">
          <mxGeometry x="180" y="20" width="460" height="200" as="geometry" />
        </mxCell>
        <mxCell id="JKdy6dtFa4f12Sg1-I06-2" value="Back&amp;nbsp; scientifique Python - Stagiaire" style="text;html=1;strokeColor=none;fillColor=none;align=center;verticalAlign=middle;whiteSpace=wrap;rounded=0;" vertex="1" parent="1">
          <mxGeometry x="238" y="30" width="60" height="30" as="geometry" />
        </mxCell>
        <mxCell id="JKdy6dtFa4f12Sg1-I06-3" value="-Service 1 (Service REST developé en java)&lt;br&gt;-Service 2 (Service REST developé en java)&lt;br&gt;-Service 3 (Service REST developé en java)" style="shape=tape;whiteSpace=wrap;html=1;" vertex="1" parent="1">
          <mxGeometry x="170" y="260" width="458" height="180" as="geometry" />
        </mxCell>
        <mxCell id="JKdy6dtFa4f12Sg1-I06-4" value="Back scientifique" style="text;html=1;strokeColor=none;fillColor=none;align=center;verticalAlign=middle;whiteSpace=wrap;rounded=0;" vertex="1" parent="1">
          <mxGeometry x="168" y="270" width="60" height="30" as="geometry" />
        </mxCell>
        <mxCell id="JKdy6dtFa4f12Sg1-I06-5" value="" style="shape=flexArrow;endArrow=classic;startArrow=classic;html=1;rounded=0;" edge="1" parent="1" target="JKdy6dtFa4f12Sg1-I06-1">
          <mxGeometry width="100" height="100" relative="1" as="geometry">
            <mxPoint x="288" y="310" as="sourcePoint" />
            <mxPoint x="388" y="210" as="targetPoint" />
          </mxGeometry>
        </mxCell>
        <mxCell id="JKdy6dtFa4f12Sg1-I06-7" value="Service 1" style="edgeLabel;html=1;align=center;verticalAlign=middle;resizable=0;points=[];" vertex="1" connectable="0" parent="JKdy6dtFa4f12Sg1-I06-5">
          <mxGeometry x="0.1911" y="-1" relative="1" as="geometry">
            <mxPoint as="offset" />
          </mxGeometry>
        </mxCell>
        <mxCell id="JKdy6dtFa4f12Sg1-I06-8" value="" style="shape=flexArrow;endArrow=classic;startArrow=classic;html=1;rounded=0;" edge="1" parent="1">
          <mxGeometry width="100" height="100" relative="1" as="geometry">
            <mxPoint x="348" y="280" as="sourcePoint" />
            <mxPoint x="393" y="190" as="targetPoint" />
          </mxGeometry>
        </mxCell>
        <mxCell id="JKdy6dtFa4f12Sg1-I06-9" value="Service 2" style="edgeLabel;html=1;align=center;verticalAlign=middle;resizable=0;points=[];" vertex="1" connectable="0" parent="JKdy6dtFa4f12Sg1-I06-8">
          <mxGeometry x="0.1911" y="-1" relative="1" as="geometry">
            <mxPoint as="offset" />
          </mxGeometry>
        </mxCell>
        <mxCell id="JKdy6dtFa4f12Sg1-I06-10" value="" style="shape=flexArrow;endArrow=classic;startArrow=classic;html=1;rounded=0;" edge="1" parent="1">
          <mxGeometry width="100" height="100" relative="1" as="geometry">
            <mxPoint x="408" y="270" as="sourcePoint" />
            <mxPoint x="453" y="180" as="targetPoint" />
          </mxGeometry>
        </mxCell>
        <mxCell id="JKdy6dtFa4f12Sg1-I06-11" value="Service 3" style="edgeLabel;html=1;align=center;verticalAlign=middle;resizable=0;points=[];" vertex="1" connectable="0" parent="JKdy6dtFa4f12Sg1-I06-10">
          <mxGeometry x="0.1911" y="-1" relative="1" as="geometry">
            <mxPoint as="offset" />
          </mxGeometry>
        </mxCell>
        <mxCell id="JKdy6dtFa4f12Sg1-I06-12" value="tous les services du fron +connection BD" style="shape=tape;whiteSpace=wrap;html=1;" vertex="1" parent="1">
          <mxGeometry x="180" y="490" width="488" height="270" as="geometry" />
        </mxCell>
        <mxCell id="JKdy6dtFa4f12Sg1-I06-13" value="Back SMQ/Assistant NC" style="text;html=1;strokeColor=none;fillColor=none;align=center;verticalAlign=middle;whiteSpace=wrap;rounded=0;" vertex="1" parent="1">
          <mxGeometry x="190" y="510" width="60" height="30" as="geometry" />
        </mxCell>
        <mxCell id="JKdy6dtFa4f12Sg1-I06-14" value="" style="shape=flexArrow;endArrow=classic;startArrow=classic;html=1;rounded=0;" edge="1" parent="1">
          <mxGeometry width="100" height="100" relative="1" as="geometry">
            <mxPoint x="348" y="530" as="sourcePoint" />
            <mxPoint x="448" y="430" as="targetPoint" />
            <Array as="points" />
          </mxGeometry>
        </mxCell>
        <mxCell id="JKdy6dtFa4f12Sg1-I06-15" value="Consommé les services REST au besoin pour servir le front" style="edgeLabel;html=1;align=center;verticalAlign=middle;resizable=0;points=[];" vertex="1" connectable="0" parent="JKdy6dtFa4f12Sg1-I06-14">
          <mxGeometry x="0.255" relative="1" as="geometry">
            <mxPoint as="offset" />
          </mxGeometry>
        </mxCell>
        <mxCell id="JKdy6dtFa4f12Sg1-I06-16" value="Text" style="text;html=1;strokeColor=none;fillColor=none;align=center;verticalAlign=middle;whiteSpace=wrap;rounded=0;" vertex="1" parent="1">
          <mxGeometry x="308" y="230" width="60" height="30" as="geometry" />
        </mxCell>
        <mxCell id="JKdy6dtFa4f12Sg1-I06-17" value="&lt;h1&gt;Stagiaires&lt;/h1&gt;&lt;p&gt;Remi&lt;/p&gt;&lt;p&gt;Raphael&lt;/p&gt;&lt;p&gt;Carla&lt;/p&gt;" style="text;html=1;strokeColor=none;fillColor=none;spacing=5;spacingTop=-20;whiteSpace=wrap;overflow=hidden;rounded=0;" vertex="1" parent="1">
          <mxGeometry x="20" y="70" width="190" height="120" as="geometry" />
        </mxCell>
        <mxCell id="JKdy6dtFa4f12Sg1-I06-18" value="Documents a produire :&lt;br&gt;-Cahier de charge partie scientifique&lt;br&gt;-Taches detailles partie scientifique&lt;br&gt;-Video Pour presenter la partie fonctionelle du projet&lt;br&gt;-Faire les maquettes" style="rounded=0;whiteSpace=wrap;html=1;" vertex="1" parent="1">
          <mxGeometry x="670" y="40" width="120" height="160" as="geometry" />
        </mxCell>
        <mxCell id="JKdy6dtFa4f12Sg1-I06-19" value="&lt;h1&gt;Consultants Back + Raymond&lt;/h1&gt;&lt;p&gt;(Houcine + Raymond)&lt;/p&gt;" style="text;html=1;strokeColor=none;fillColor=none;spacing=5;spacingTop=-20;whiteSpace=wrap;overflow=hidden;rounded=0;" vertex="1" parent="1">
          <mxGeometry y="290" width="190" height="120" as="geometry" />
        </mxCell>
        <mxCell id="JKdy6dtFa4f12Sg1-I06-20" value="&lt;h1&gt;Consultants Back + Raymond&lt;/h1&gt;&lt;p&gt;(Tous les dev back + Raymond)&lt;/p&gt;" style="text;html=1;strokeColor=none;fillColor=none;spacing=5;spacingTop=-20;whiteSpace=wrap;overflow=hidden;rounded=0;" vertex="1" parent="1">
          <mxGeometry y="540" width="190" height="120" as="geometry" />
        </mxCell>
        <mxCell id="JKdy6dtFa4f12Sg1-I06-24" value="BD Azure" style="shape=datastore;whiteSpace=wrap;html=1;" vertex="1" parent="1">
          <mxGeometry x="570" y="460" width="130" height="110" as="geometry" />
        </mxCell>
        <mxCell id="JKdy6dtFa4f12Sg1-I06-25" value="Documents a produire :&lt;br&gt;-Cahier de charge des services exposé" style="rounded=0;whiteSpace=wrap;html=1;" vertex="1" parent="1">
          <mxGeometry x="680" y="270" width="120" height="120" as="geometry" />
        </mxCell>
        <mxCell id="JKdy6dtFa4f12Sg1-I06-26" value="Documents a produire :&lt;br&gt;-Cahier de charge partie applicative Front/back&lt;br&gt;-Taches detailles partie (backlog)&lt;br&gt;-Video Pour presenter la partie architecture&amp;nbsp; du projet&lt;br&gt;-Figma pour solution" style="rounded=0;whiteSpace=wrap;html=1;" vertex="1" parent="1">
          <mxGeometry x="690" y="570" width="120" height="160" as="geometry" />
        </mxCell>
        <mxCell id="JKdy6dtFa4f12Sg1-I06-27" value="Front Angular" style="shape=tape;whiteSpace=wrap;html=1;" vertex="1" parent="1">
          <mxGeometry x="185" y="880" width="485" height="180" as="geometry" />
        </mxCell>
        <mxCell id="JKdy6dtFa4f12Sg1-I06-28" value="&lt;h1&gt;Consultants Front Angular&amp;nbsp; &amp;nbsp;&lt;/h1&gt;" style="text;html=1;strokeColor=none;fillColor=none;spacing=5;spacingTop=-20;whiteSpace=wrap;overflow=hidden;rounded=0;" vertex="1" parent="1">
          <mxGeometry y="890" width="190" height="120" as="geometry" />
        </mxCell>
        <mxCell id="JKdy6dtFa4f12Sg1-I06-29" value="" style="shape=flexArrow;endArrow=classic;startArrow=classic;html=1;rounded=0;entryX=0.533;entryY=0.778;entryDx=0;entryDy=0;entryPerimeter=0;" edge="1" parent="1" target="JKdy6dtFa4f12Sg1-I06-12">
          <mxGeometry width="100" height="100" relative="1" as="geometry">
            <mxPoint x="380" y="920" as="sourcePoint" />
            <mxPoint x="480" y="820" as="targetPoint" />
          </mxGeometry>
        </mxCell>
        <mxCell id="JKdy6dtFa4f12Sg1-I06-30" value="Documents a produire :&lt;br&gt;&lt;br&gt;-Video Pour presenter la partie technique front&amp;nbsp; du projet&lt;br&gt;-Figma pour solution" style="rounded=0;whiteSpace=wrap;html=1;" vertex="1" parent="1">
          <mxGeometry x="690" y="840" width="120" height="160" as="geometry" />
        </mxCell>
      </root>
    </mxGraphModel>
  </diagram>
</mxfile>
